<svg width="40" height="40" viewBox="0 0 40 40" fill="none" xmlns="http://www.w3.org/2000/svg">
<path d="M35 10.8335C35 14.0502 32.3833 16.6668 29.1667 16.6668C25.95 16.6668 23.3333 14.0502 23.3333 10.8335C23.3333 7.61683 25.95 5.00016 29.1667 5.00016C32.3833 5.00016 35 7.61683 35 10.8335ZM19.1667 36.6668C21.0167 36.6668 22.5 35.1835 22.5 33.3335H15.8333C15.8333 34.2176 16.1845 35.0654 16.8096 35.6905C17.4348 36.3156 18.2826 36.6668 19.1667 36.6668ZM30 20.0002H29.1667C28.3333 20.0002 27.5 19.8668 26.6667 19.6502V28.3335H11.6667V17.5002C11.6667 13.3335 15 10.0002 19.1667 10.0002C19.4667 10.0002 19.75 10.0502 20 10.0835C20.1667 8.4335 20.75 6.90016 21.6667 5.61683C21.5333 4.3335 20.4667 3.3335 19.1667 3.3335C17.7833 3.3335 16.6667 4.45016 16.6667 5.8335V6.96683C11.8833 8.10016 8.33333 12.3835 8.33333 17.5002V26.6668L5 30.0002V31.6668H33.3333V30.0002L30 26.6668V20.0002Z" fill="#324B4B"/>
</svg>
