<svg width="56" height="56" viewBox="0 0 56 56" fill="none" xmlns="http://www.w3.org/2000/svg">
<path d="M35.7839 55.9545L52.6276 52.3092C52.6276 52.3092 46.5481 11.2122 46.5026 10.9375C46.4571 10.6628 46.2296 10.4913 46.0109 10.4913C45.7834 10.4913 41.5081 10.1728 41.5081 10.1728C41.5081 10.1728 38.5279 7.20125 38.1446 6.88275C38.0653 6.8041 37.9689 6.74481 37.8629 6.7095L35.7296 55.9562L35.7839 55.9545ZM27.3261 26.3778C27.3261 26.3778 25.4309 25.3925 23.1874 25.3925C19.8064 25.3925 19.6786 27.4977 19.6786 28.0543C19.6786 30.926 27.2351 32.0547 27.2351 38.8552C27.2351 44.205 23.8716 47.6227 19.2866 47.6227C13.7899 47.6227 11.0284 44.205 11.0284 44.205L12.5316 39.3382C12.5316 39.3382 15.4384 41.8267 17.8551 41.8267C19.4319 41.8267 20.1336 40.5597 20.1336 39.648C20.1336 35.875 13.9351 35.7018 13.9351 29.4858C13.8529 24.2638 17.5996 19.1765 25.2016 19.1765C28.1364 19.1765 29.5766 20.0148 29.5766 20.0148L27.3716 26.3585L27.3261 26.3778ZM26.0679 1.932C26.3776 1.932 26.6961 2.023 27.0059 2.2505C24.7081 3.3355 22.1934 6.0795 21.1539 11.5658C19.694 12.0407 18.2262 12.4906 16.7509 12.915C17.9549 8.75 20.8791 1.96 26.0661 1.96L26.0679 1.932ZM28.9484 8.813V9.1315C27.1896 9.66875 25.2471 10.262 23.3606 10.8448C24.4456 6.69725 26.4686 4.67425 28.2274 3.91825C28.6736 5.0855 28.9466 6.66225 28.9466 8.813H28.9484ZM30.2049 3.61025C31.8184 3.77475 32.8666 5.6245 33.5316 7.7035C32.7196 7.96775 31.8184 8.24075 30.8331 8.5505V7.96775C30.8331 6.209 30.6056 4.76875 30.2049 3.6015V3.61025ZM37.1874 6.61675C37.1331 6.61675 37.0421 6.66225 37.0054 6.66225C36.9599 6.66225 36.3316 6.8355 35.3376 7.154C34.3524 4.2735 32.5936 1.62225 29.4856 1.62225H29.2126C28.3201 0.49175 27.2264 0 26.2866 0C19.0399 0 15.5766 9.051 14.4916 13.6447C11.7021 14.4917 9.67911 15.1217 9.45161 15.2127C7.87486 15.7133 7.82936 15.7605 7.64736 17.2445C7.47411 18.3207 3.38086 50.057 3.38086 50.057L35.0174 56L37.1874 6.61675Z" fill="#324B4B"/>
</svg>
