<svg width="32" height="32" viewBox="0 0 32 32" fill="none" xmlns="http://www.w3.org/2000/svg">
<path d="M28 25.3334H12M4 6.66675H9.33333H4ZM28 6.66675H14.6667H28ZM4 16.0001H20H4ZM28 16.0001H25.3333H28ZM4 25.3334H6.66667H4Z" stroke="#324B4B" stroke-width="2" stroke-linecap="round"/>
<path d="M12 9.33333C13.4727 9.33333 14.6666 8.13943 14.6666 6.66667C14.6666 5.19391 13.4727 4 12 4C10.5272 4 9.33331 5.19391 9.33331 6.66667C9.33331 8.13943 10.5272 9.33333 12 9.33333Z" stroke="#324B4B" stroke-width="2" stroke-linecap="round"/>
<path d="M22.6667 18.6666C24.1394 18.6666 25.3333 17.4727 25.3333 15.9999C25.3333 14.5272 24.1394 13.3333 22.6667 13.3333C21.1939 13.3333 20 14.5272 20 15.9999C20 17.4727 21.1939 18.6666 22.6667 18.6666Z" stroke="#324B4B" stroke-width="2" stroke-linecap="round"/>
<path d="M9.33335 28.0001C10.8061 28.0001 12 26.8062 12 25.3334C12 23.8607 10.8061 22.6667 9.33335 22.6667C7.86059 22.6667 6.66669 23.8607 6.66669 25.3334C6.66669 26.8062 7.86059 28.0001 9.33335 28.0001Z" stroke="#324B4B" stroke-width="2" stroke-linecap="round"/>
</svg>
