<svg width="36" height="36" viewBox="0 0 36 36" fill="none" xmlns="http://www.w3.org/2000/svg">
<path d="M17.5856 35.9995C18.6634 35.9741 19.6977 35.5586 20.5056 34.8267C21.3135 34.0948 21.8428 33.0935 22 32H13C13.1616 33.1232 13.7158 34.148 14.5593 34.8837C15.4028 35.6194 16.4782 36.0159 17.5856 35.9995V35.9995Z" fill="#324B4B"/>
<path d="M32.46 27.055C31.4957 26.1953 30.6515 25.2098 29.95 24.125C29.1842 22.6275 28.7252 20.9922 28.6 19.315V14.375C28.5959 13.775 28.5424 13.1763 28.44 12.585C27.6529 12.4277 25.8965 11.144 25.2 10.745C25.4655 11.5998 25.6003 13.4899 25.6 14.385V19.325C25.7226 21.371 26.2854 23.3665 27.25 25.175C27.9404 26.269 25.7596 25.2762 27.69 26.175H17.885H8.08C9.01041 25.2762 7.8296 26.269 8.52 25.175C9.48461 23.3665 10.0474 21.371 10.17 19.325V14.375C10.1647 13.2177 10.3878 12.0707 10.8264 10.9997C11.2651 9.92874 10.9107 9.9548 11.7262 9.13366C12.5418 8.31253 13.5113 7.66033 14.5793 7.21441C15.6472 6.7685 16.7927 6.53762 17.95 6.535C19.6438 6.53636 21.2995 7.03725 22.71 7.975C22.5545 7.40399 22.4672 5.81656 22.45 5.225V4.595C21.4059 4.08136 20.2841 3.74349 19.13 3.595V2.335C19.13 1.98094 18.9893 1.64137 18.739 1.39101C18.4886 1.14065 18.1491 1 17.795 1C17.4409 1 17.1014 1.14065 16.851 1.39101C16.6007 1.64137 16.46 1.98094 16.46 2.335V3.645C13.8757 4.00955 11.5106 5.29674 9.80122 7.26893C8.09187 9.24112 7.15373 11.7651 7.16 14.375V19.315C7.03475 20.9922 6.57578 22.6275 5.81 24.125C5.12088 25.2073 4.29019 26.1927 3.34 27.055C3.23333 27.1487 3.14784 27.2641 3.08922 27.3934C3.03059 27.5227 3.00018 27.663 3 27.805V29.165C3 29.4302 3.10536 29.6846 3.29289 29.8721C3.48043 30.0596 3.73478 30.165 4 30.165H31.8C32.0652 30.165 32.3196 30.0596 32.5071 29.8721C32.6946 29.6846 32.8 29.4302 32.8 29.165V27.805C32.7998 27.663 32.7694 27.5227 32.7108 27.3934C32.6522 27.2641 32.5667 27.1487 32.46 27.055Z" fill="#324B4B"/>
<path d="M29 11C31.7614 11 34 8.76142 34 6C34 3.23858 31.7614 1 29 1C26.2386 1 24 3.23858 24 6C24 8.76142 26.2386 11 29 11Z" fill="#06ACB8"/>
</svg>
