<svg width="41" height="41" viewBox="0 0 41 41" fill="none" xmlns="http://www.w3.org/2000/svg">
<path d="M29.418 10.1315H24.3774V8.0022C24.3762 7.66377 24.2532 7.3396 24.0353 7.10029C23.8175 6.86099 23.5223 6.72596 23.2142 6.72461H17.7858C17.4777 6.72596 17.1826 6.86099 16.9647 7.10029C16.7468 7.3396 16.6239 7.66377 16.6226 8.0022V10.1315H11.582C11.2738 10.1324 10.9784 10.2673 10.7604 10.5067C10.5425 10.7461 10.4196 11.0705 10.4188 11.4091V13.5384H30.5812V11.4091C30.5804 11.0705 30.4576 10.7461 30.2396 10.5067C30.0216 10.2673 29.7262 10.1324 29.418 10.1315ZM22.8264 10.1315H18.1736V8.4502H22.8264V10.1315Z" fill="#324B4B"/>
<path d="M11.9698 15.5381V32.5726C11.9698 33.5095 12.6677 34.276 13.5207 34.276H27.4793C28.3323 34.276 29.0302 33.5095 29.0302 32.5726V15.5381H11.9698ZM16.6226 30.8691H15.0717V18.945H16.6226V30.8691ZM19.7245 30.8691H18.1736V18.945H19.7245V30.8691ZM22.8264 30.8691H21.2755V18.945H22.8264V30.8691ZM25.9283 30.8691H24.3774V18.945H25.9283V30.8691Z" fill="#324B4B"/>
</svg>
