<svg width="56" height="56" viewBox="0 0 56 56" fill="none" xmlns="http://www.w3.org/2000/svg">
<rect width="56" height="56" rx="10" fill="white"/>
<path d="M11.6667 51.3336H44.3333C45.571 51.3336 46.758 50.8419 47.6332 49.9667C48.5083 49.0915 49 47.9046 49 46.6669V25.6669C49.0018 25.3598 48.9429 25.0554 48.8268 24.7711C48.7107 24.4868 48.5396 24.2282 48.3233 24.0102L29.6567 5.34356C29.2195 4.90897 28.6281 4.66504 28.0117 4.66504C27.3952 4.66504 26.8038 4.90897 26.3667 5.34356L7.7 24.0102C7.47953 24.2263 7.30413 24.484 7.18397 24.7684C7.06381 25.0528 7.00128 25.3582 7 25.6669V46.6669C7 47.9046 7.49167 49.0915 8.36683 49.9667C9.242 50.8419 10.429 51.3336 11.6667 51.3336ZM23.3333 46.6669V35.0002H32.6667V46.6669H23.3333ZM11.6667 26.6236L28 10.2902L44.3333 26.6236V46.6669H37.3333V35.0002C37.3333 33.7625 36.8417 32.5756 35.9665 31.7004C35.0913 30.8252 33.9043 30.3336 32.6667 30.3336H23.3333C22.0957 30.3336 20.9087 30.8252 20.0335 31.7004C19.1583 32.5756 18.6667 33.7625 18.6667 35.0002V46.6669H11.6667V26.6236Z" fill="#324B4B"/>
</svg>
