<svg width="26" height="25" viewBox="0 0 26 25" fill="none" xmlns="http://www.w3.org/2000/svg">
<path d="M24.145 20.8984L13.8849 3.32031C13.732 3.05908 13.4681 2.92969 13.2018 2.92969C12.9354 2.92969 12.669 3.05908 12.5186 3.32031L2.25853 20.8984C1.95517 21.4209 2.33499 22.0703 2.94171 22.0703H23.4618C24.0685 22.0703 24.4484 21.4209 24.145 20.8984ZM12.4125 10.1563C12.4125 10.0488 12.5013 9.96094 12.6098 9.96094H13.7937C13.9022 9.96094 13.991 10.0488 13.991 10.1563V14.6484C13.991 14.7559 13.9022 14.8438 13.7937 14.8438H12.6098C12.5013 14.8438 12.4125 14.7559 12.4125 14.6484V10.1563ZM13.2018 18.75C12.892 18.7437 12.597 18.6175 12.3801 18.3984C12.1633 18.1794 12.0418 17.8848 12.0418 17.5781C12.0418 17.2714 12.1633 16.9769 12.3801 16.7578C12.597 16.5387 12.892 16.4125 13.2018 16.4063C13.5116 16.4125 13.8065 16.5387 14.0234 16.7578C14.2402 16.9769 14.3617 17.2714 14.3617 17.5781C14.3617 17.8848 14.2402 18.1794 14.0234 18.3984C13.8065 18.6175 13.5116 18.7437 13.2018 18.75Z" fill="#C80000"/>
</svg>
