<svg width="31" height="31" viewBox="0 0 31 31" fill="none" xmlns="http://www.w3.org/2000/svg">
<path d="M9.48852 28.1346C10.5366 28.1346 11.3862 27.2948 11.3862 26.2589C11.3862 25.223 10.5366 24.3833 9.48852 24.3833C8.44045 24.3833 7.59082 25.223 7.59082 26.2589C7.59082 27.2948 8.44045 28.1346 9.48852 28.1346Z" fill="black"/>
<path d="M22.7725 28.1346C23.8205 28.1346 24.6702 27.2948 24.6702 26.2589C24.6702 25.223 23.8205 24.3833 22.7725 24.3833C21.7244 24.3833 20.8748 25.223 20.8748 26.2589C20.8748 27.2948 21.7244 28.1346 22.7725 28.1346Z" fill="black"/>
<path d="M4.72528 2.62949C4.6823 2.41697 4.56618 2.22572 4.39666 2.08827C4.22714 1.95081 4.01468 1.87562 3.79541 1.87549H0V3.75111H3.01735L6.66094 21.7534C6.70392 21.9659 6.82004 22.1571 6.98956 22.2946C7.15908 22.432 7.37154 22.5072 7.59081 22.5074H24.6701V20.6317H8.36887L7.60979 16.8805H24.6701C24.886 16.8805 25.0954 16.8077 25.2637 16.6742C25.4321 16.5407 25.5494 16.3544 25.5962 16.1462L27.7482 6.56455H25.8059L23.9092 15.0049H7.23025L4.72528 2.62949Z" fill="black"/>
<path d="M17.0793 5.62674V1.87549H15.1816V5.62674H11.3862V7.50236H15.1816V11.2536H17.0793V7.50236H20.8747V5.62674H17.0793Z" fill="black"/>
</svg>
