<svg width="25" height="26" viewBox="0 0 25 26" fill="none" xmlns="http://www.w3.org/2000/svg">
<path d="M9.97067 0C4.4584 0 0 4.53044 0 10.1318C0 15.7332 4.4584 20.2636 9.97067 20.2636C11.9387 20.2636 13.7601 19.6769 15.3043 18.6805L22.5073 26L25 23.467L17.8886 16.2593C19.167 14.5552 19.9413 12.4436 19.9413 10.1318C19.9413 4.53044 15.483 0 9.97067 0ZM9.97067 2.38395C14.1931 2.38395 17.5953 5.84115 17.5953 10.1318C17.5953 14.4225 14.1931 17.8797 9.97067 17.8797C5.74826 17.8797 2.34604 14.4225 2.34604 10.1318C2.34604 5.84115 5.74826 2.38395 9.97067 2.38395Z" fill="black"/>
</svg>
