<svg width="32" height="32" viewBox="0 0 32 32" fill="none" xmlns="http://www.w3.org/2000/svg">
<path fill-rule="evenodd" clip-rule="evenodd" d="M27.7079 4.29208C27.801 4.38497 27.8749 4.49532 27.9253 4.61681C27.9758 4.7383 28.0017 4.86854 28.0017 5.00008C28.0017 5.13161 27.9758 5.26186 27.9253 5.38335C27.8749 5.50484 27.801 5.61519 27.7079 5.70808L5.70792 27.7081C5.52015 27.8959 5.26547 28.0013 4.99992 28.0013C4.73437 28.0013 4.47969 27.8959 4.29192 27.7081C4.10415 27.5203 3.99866 27.2656 3.99866 27.0001C3.99866 26.7345 4.10415 26.4799 4.29192 26.2921L26.2919 4.29208C26.3848 4.19895 26.4952 4.12507 26.6167 4.07465C26.7381 4.02424 26.8684 3.99829 26.9999 3.99829C27.1315 3.99829 27.2617 4.02424 27.3832 4.07465C27.5047 4.12507 27.615 4.19895 27.7079 4.29208Z" fill="#324B4B"/>
<path fill-rule="evenodd" clip-rule="evenodd" d="M4.29196 4.29208C4.19883 4.38497 4.12494 4.49532 4.07453 4.61681C4.02412 4.7383 3.99817 4.86854 3.99817 5.00008C3.99817 5.13161 4.02412 5.26186 4.07453 5.38335C4.12494 5.50484 4.19883 5.61519 4.29196 5.70808L26.292 27.7081C26.4797 27.8959 26.7344 28.0013 27 28.0013C27.2655 28.0013 27.5202 27.8959 27.708 27.7081C27.8957 27.5203 28.0012 27.2656 28.0012 27.0001C28.0012 26.7345 27.8957 26.4799 27.708 26.2921L5.70796 4.29208C5.61507 4.19895 5.50471 4.12507 5.38322 4.07465C5.26173 4.02424 5.13149 3.99829 4.99996 3.99829C4.86842 3.99829 4.73818 4.02424 4.61669 4.07465C4.4952 4.12507 4.38485 4.19895 4.29196 4.29208Z" fill="#324B4B"/>
</svg>
